<svg width="188" height="198" viewBox="0 0 188 198" fill="none" xmlns="http://www.w3.org/2000/svg">
    <g clip-path="url(#clip0_3_14)">
        <path
            d="M188 199C125.402 199 62.8045 199 0 199C0 132.938 2.8155e-08 66.8753 0.442751 0.343552C63.2503 -0.119975 125.615 -0.114221 187.986 0.35941C187.994 66.8849 187.997 132.942 188 199ZM74.7942 141.085C76.1164 141.734 76.7245 141.399 77.8869 139.381C78.7791 140.458 79.6519 141.51 80.8817 142.994C80.8817 140.585 81.0668 139.014 80.8276 137.518C80.6056 136.131 79.9304 134.825 79.4548 133.483C77.8702 134.136 88.4156 142.079 86.1639 142.452C85.6399 142.108 72.9568 134.143 72.467 134.191C70.7225 134.362 92.6799 141.547 92.1106 142.585C91.2385 144.176 66.6705 139.553 67.3907 141.308C67.7191 142.108 70.5836 141.923 72.2816 141.834C73.1066 141.791 73.8941 140.943 74.7942 141.085ZM70.5569 89.8939C72.3503 89.3005 74.1992 88.8484 75.9272 88.0884C82.4319 85.2277 86.0584 80.2192 85.6984 74.2786C85.2697 67.2049 81.0201 62.9522 75.1512 61.018C62.0976 56.7159 49.3444 58.0226 37.4187 65.2781C29.9073 69.8479 24.6909 76.5824 22.5801 85.6489C20.5039 94.5673 24.2725 102.341 32.2634 105.907C33.5883 106.498 34.9679 106.951 36.3007 107.46C34.5384 108.688 32.1771 109.415 31.4972 110.968C28.6667 117.432 32.2651 124.375 38.879 125.993C55.424 130.041 69.3902 123.611 77.8915 108.063C77.9928 107.878 78.4361 107.902 78.7343 108.763C78.2441 114.419 76.9566 120.854 82.5927 124.15C92.0453 129.678 98.6916 122.844 105.124 116.391C107.359 123.804 110.112 126.733 115.887 125.805C120.683 125.035 125.221 122.469 129.444 120.862C127.493 126.671 125.226 132.968 123.319 139.385C122.768 141.238 123.248 143.435 123.256 145.475C125.987 144.388 128.825 143.517 131.386 142.089C132.191 141.639 132.26 139.696 132.652 138.431C134.41 132.757 136.162 127.08 137.938 121.336C146.027 126.078 151.419 125.184 156.726 117.912C162.629 109.824 165.186 100.499 164.404 90.2931C163.98 84.7566 160.887 82.6931 155.867 84.6748C152.992 85.8097 150.381 87.6922 148.692 88.6482C146.179 87.4749 144.17 85.7666 142.313 85.9363C141.044 86.0523 139.647 88.6275 138.912 90.3868C137.582 93.5703 137.039 97.1462 135.561 100.232C133.098 105.373 130.426 110.455 127.32 115.178C125.262 118.308 121.71 119.18 118.413 117.473C115.07 115.742 114.29 112.357 114.867 108.396C116.932 107.874 119.164 107.85 120.798 106.791C124.992 104.073 129.511 101.472 132.773 97.7238C135.514 94.5738 136.352 89.8448 132.978 85.8522C130.1 82.4457 124.319 81.3474 120.377 83.9145C117.888 85.5356 115.343 87.6257 113.789 90.1678C111.085 94.5914 109.258 99.6041 106.817 104.225C104.769 108.103 102.659 112.02 100.041 115.463C97.7811 118.435 94.2957 119.216 91.0636 117.261C87.827 115.303 87.2325 111.956 88.0253 108.457C90.9433 107.581 93.5718 107.008 96.0447 106.005C101.055 103.972 105.177 100.76 107.1 95.1665C109.291 88.7939 106.446 83.8522 100.156 82.758C95.4419 81.9378 91.3106 83.7086 88.9607 87.5814C85.0348 94.0514 82.0014 101.129 78.2335 107.162C78.9048 99.6632 76.3833 94.075 69.5356 90.4225C69.632 90.2477 69.7282 90.073 70.5569 89.8939ZM103.562 39.7536C99.182 37.173 94.8017 34.5924 90.4214 32.0118C90.1552 32.4883 89.8891 32.9648 89.6229 33.4413C94.3357 39.7822 99.7949 45.6684 103.553 52.5907C107.372 59.6238 109.513 67.6786 112.271 74.9771C118.072 65.0084 114.972 51.1775 103.562 39.7536ZM102.602 68.8506C103.067 56.8042 94.1938 46.0893 85.5576 47.6347C90.2981 56.8119 95.1113 66.1297 100.152 75.8882C100.906 73.8235 101.669 71.7311 102.602 68.8506ZM86.1639 138.831C85.882 137.72 85.6001 136.61 85.3301 135.504C86.3214 135.124 87.3126 134.744 88.3039 134.364C88.233 134.11 88.1621 133.857 88.0913 133.604C86.5177 133.604 84.944 133.604 83.3398 133.604C83.3398 136.689 83.3398 139.406 83.3398 142.585C85.2687 142.494 86.8366 142.42 88.713 142.331C87.322 140.927 86.4079 140.004 86.1639 138.831ZM38.8039 139.114C39.4878 140.136 40.0178 141.402 40.9362 142.053C41.2737 142.292 43.3167 140.789 43.2457 140.572C42.4143 138.04 41.3281 135.601 40.3092 133.138C39.8756 133.291 39.442 133.444 39.0084 133.597C38.94 135.17 38.8716 136.743 38.8039 139.114Z"
            fill="#FF941A" />
        <path
            d="M188.47 198.99C187.997 133.634 187.994 68.2781 187.991 2.20763C187.994 1.32535 187.997 1.15767 188 0.98999C188.313 2.30999 188.9 3.62978 188.901 4.95002C188.946 69.63 188.94 134.31 188.47 198.99Z"
            fill="#FF9F31" />
        <path
            d="M187.559 0.990014C187.997 1.1577 187.994 1.32538 187.985 1.74475C125.927 1.99075 63.874 1.98505 1.38054 1.97969C2.1899 1.65001 3.4396 1.03228 4.68973 1.03131C65.4994 0.984099 126.309 0.990014 187.559 0.990014Z"
            fill="#FF9925" />
        <path
            d="M79.1394 108.908C82.5314 102.159 85.5496 95.1562 89.4559 88.7548C91.7941 84.9232 95.9047 83.1712 100.595 83.9827C106.854 85.0653 109.684 89.9545 107.505 96.2594C105.591 101.793 101.489 104.971 96.5045 106.983C94.0439 107.975 91.4286 108.542 88.5251 109.409C87.7363 112.871 88.3278 116.182 91.5483 118.119C94.7642 120.053 98.2322 119.281 100.481 116.34C103.086 112.934 105.185 109.058 107.223 105.221C109.651 100.65 111.47 95.6904 114.16 91.3138C115.706 88.7987 118.238 86.7308 120.715 85.1269C124.637 82.587 130.389 83.6737 133.253 87.0441C136.61 90.9942 135.777 95.673 133.049 98.7896C129.803 102.498 125.307 105.071 121.134 107.76C119.508 108.808 117.288 108.832 115.233 109.349C114.658 113.267 115.434 116.616 118.761 118.329C122.041 120.018 125.576 119.155 127.624 116.058C130.714 111.386 133.372 106.357 135.823 101.271C137.294 98.218 137.834 94.6802 139.157 91.5304C139.889 89.7899 141.279 87.242 142.542 87.1272C144.389 86.9593 146.389 88.6495 148.889 89.8104C150.569 88.8645 153.167 87.002 156.028 85.8791C161.022 83.9185 164.1 85.9601 164.522 91.4378C165.3 101.535 162.756 110.761 156.882 118.764C151.602 125.958 146.236 126.843 138.188 122.151C136.421 127.834 134.677 133.45 132.929 139.065C132.539 140.316 132.47 142.239 131.669 142.683C129.121 144.096 126.297 144.958 123.58 146.033C123.572 144.015 123.094 141.841 123.642 140.008C125.54 133.659 127.796 127.429 129.737 121.682C125.535 123.272 121.019 125.81 116.248 126.572C110.501 127.49 107.762 124.593 105.539 117.259C99.1382 123.643 92.525 130.404 83.1197 124.935C77.5118 121.674 78.7928 115.307 79.2417 109.279C79.2027 108.847 79.1394 108.908 79.1394 108.908ZM131.584 120.032C131.533 119.6 131.481 119.167 131.43 118.735C131.071 118.979 130.713 119.223 129.726 120.008C129.767 120.519 129.807 121.029 129.847 121.54C130.289 121.23 130.73 120.92 131.584 120.032ZM148.33 98.3812C146.441 102.687 144.449 106.947 142.712 111.32C141.958 113.22 140.05 115.527 142.983 117.256C145.771 118.9 148.364 118.139 149.773 115.295C152.06 110.682 154.334 105.962 155.755 101.013C156.496 98.4323 155.404 95.2678 155.14 92.3669C152.977 94.1584 150.815 95.9498 148.33 98.3812ZM93.3358 103.138C98.0764 99.8817 101.168 95.6516 101.521 88.4084C93.7677 91.2976 92.1853 97.6657 89.449 104.136C91.0077 103.845 91.8542 103.686 93.3358 103.138ZM118.623 103.907C125.463 100.11 128.643 94.9087 127.547 89.3075C122.959 90.0681 116.647 98.8404 117.102 103.879C117.11 103.968 117.642 104.003 118.623 103.907Z"
            fill="#FFFBF7" />
        <path
            d="M79.2345 108.817C78.984 108.86 78.5429 108.836 78.442 109.019C69.9833 124.402 56.0868 130.763 39.6246 126.759C33.0438 125.158 29.4634 118.289 32.2797 111.893C32.9563 110.357 35.3057 109.638 37.0592 108.423C35.733 107.919 34.3603 107.47 33.0421 106.886C25.0911 103.358 21.3414 95.6666 23.4072 86.8429C25.5074 77.8728 30.6978 71.2097 38.1716 66.6884C50.0377 59.51 62.7272 58.2172 75.7155 62.4736C81.555 64.3872 85.7834 68.5948 86.2099 75.5934C86.5681 81.4708 82.9598 86.4262 76.4876 89.2565C74.7682 90.0085 72.9286 90.4557 70.5968 91.064C70.1051 91.4432 70.1607 91.8012 70.2164 92.1592C76.9414 95.1795 79.4503 100.708 78.9609 108.518C79.1394 108.908 79.2027 108.847 79.2345 108.817ZM37.8616 71.3304C30.6143 75.288 27.0806 81.9197 26.4033 90.1515C25.791 97.5938 29.1918 102.311 35.9999 105.042C43.2581 107.953 43.2477 108.316 46.2336 101.667C49.0939 101.364 51.9543 101.061 54.8443 100.754C54.2292 106.459 52.0248 108.554 46.2659 109.088C42.3269 109.453 39.3363 113.61 39.6482 118.287C39.9015 122.084 42.3976 124.027 47.1726 123.602C55.9971 122.817 62.2055 117.584 66.6974 109.939C70.4551 103.544 70.0059 94.9623 61.9012 91.9916C61.4718 91.8342 61.2382 91.0842 61.0092 89.8591C61.0446 89.3558 61.0801 88.8526 61.842 88.1613C65.5607 86.5875 69.8765 85.7679 72.8054 83.1963C75.0646 81.2126 76.9897 76.7478 76.4763 73.9045C75.9712 71.1074 72.5828 68.0162 69.7746 66.7793C66.4803 65.3282 62.4092 65.1707 58.7406 65.4403C43.4707 66.5622 30.3837 83.04 33.4961 95.163C30.1145 93.6995 29.0206 91.0451 30.8702 86.7357C33.14 81.4472 35.9586 76.4201 39.1205 71.1617C39.927 70.6486 40.7334 70.1356 41.5399 69.6225C41.2477 69.2544 40.9555 68.8862 40.6633 68.5181C39.9555 69.4387 39.2478 70.3594 37.8616 71.3304ZM71.4838 106.265C68.9034 110.825 66.323 115.385 63.3402 120.656C69.615 119.54 71.9325 114.574 74.2778 110.282C75.9895 107.149 76.0946 103.216 73.1314 99.2314C72.5407 101.845 72.1231 103.692 71.4838 106.265ZM76.8038 83.5307C77.4648 83.817 78.3998 84.5548 78.7457 84.3219C83.945 80.8211 84.0192 73.2181 79.5634 69.6894C78.7517 73.8884 77.8791 78.402 76.8038 83.5307Z"
            fill="#FFFFFE" />
        <path
            d="M104.244 41.6591C115.337 52.7377 118.422 66.4216 112.65 76.2845C109.905 69.0634 107.775 61.0942 103.975 54.1358C100.236 47.2871 94.8041 41.4634 90.1148 35.1899C90.3796 34.7184 90.6444 34.247 90.9093 33.7755C95.2677 36.3287 99.6261 38.8819 104.244 41.6591Z"
            fill="#FFFAF5" />
        <path
            d="M102.945 70.6129C102.101 73.0729 101.341 75.1431 100.591 77.1859C95.5758 67.531 90.7866 58.3122 86.0698 49.2325C94.6628 47.7035 103.492 58.3046 102.945 70.6129Z"
            fill="#FFFAF4" />
        <path
            d="M75.2651 141.07C74.4646 141.549 73.681 142.389 72.8602 142.431C71.1707 142.519 68.3205 142.703 67.9937 141.911C67.2772 140.174 67.2223 137.48 68.0901 135.906C68.6566 134.878 71.3089 135.038 73.0447 134.869C73.532 134.822 74.0823 135.491 74.8985 136.321C75.2172 138.23 75.2411 139.65 75.2651 141.07Z"
            fill="#FF941A" />
        <path
            d="M75.2 147.015C75.7762 148.052 89.2631 140.782 90.6471 142.172C88.78 142.259 87.22 142.333 85.3007 142.423C85.3007 139.277 91.6776 145.476 91.6776 142.423C93.2739 142.423 90.24 131.413 90.0284 133.537C87.7774 134.878 94.4976 139.333 90.24 134.289C89.2537 134.665 84.2098 131.04 83.2176 131.413C83.4922 132.51 75.2529 145.793 75.2 147.015Z"
            fill="#FF941A" />
        <path
            d="M39.5496 139.345C39.6173 137.394 39.6853 135.838 39.7533 134.282C40.1848 134.13 40.6162 133.979 41.0477 133.827C42.0615 136.264 43.1423 138.677 43.9694 141.183C44.0402 141.397 42.0073 142.884 41.6715 142.648C40.7578 142.004 40.2304 140.752 39.5496 139.345Z"
            fill="#FF941A" />
        <path
            d="M70.1722 91.8625C70.1607 91.8012 70.105 91.4432 70.2324 91.0661C70.3196 91.22 70.2238 91.3929 70.1722 91.8625Z"
            fill="#FFF9F2" />
        <path
            d="M148.491 98.0613C150.815 95.9498 152.977 94.1584 155.14 92.3669C155.404 95.2678 156.496 98.4324 155.755 101.013C154.334 105.962 152.06 110.682 149.773 115.295C148.364 118.139 145.771 118.9 142.983 117.256C140.05 115.527 141.958 113.22 142.712 111.32C144.449 106.947 146.441 102.687 148.491 98.0613Z"
            fill="#FF971F" />
        <path
            d="M93.0182 103.333C91.8542 103.686 91.0077 103.845 89.449 104.136C92.1852 97.6657 93.7677 91.2976 101.521 88.4084C101.168 95.6516 98.0764 99.8817 93.0182 103.333Z"
            fill="#FF9923" />
        <path
            d="M118.276 103.985C117.642 104.003 117.11 103.968 117.102 103.879C116.647 98.8404 122.959 90.0681 127.547 89.3075C128.643 94.9087 125.463 100.11 118.276 103.985Z"
            fill="#FF9720" />
        <path
            d="M130.355 119.467C130.713 119.223 131.071 118.979 131.43 118.735C131.481 119.167 131.533 119.6 131.177 120.033C130.631 119.845 130.493 119.656 130.355 119.467Z"
            fill="#FF941A" />
        <path
            d="M130.97 120.322C130.73 120.92 130.289 121.23 129.847 121.54C129.807 121.029 129.767 120.519 130.041 119.737C130.493 119.656 130.631 119.845 130.97 120.322Z"
            fill="#FF941A" />
        <path
            d="M60.9134 90.6101C61.2382 91.0842 61.4718 91.8342 61.9012 91.9916C70.0059 94.9622 70.4551 103.544 66.6974 109.939C62.2055 117.584 55.9971 122.817 47.1726 123.602C42.3976 124.027 39.9014 122.084 39.6482 118.287C39.3363 113.61 42.3269 109.453 46.2659 109.088C52.0248 108.554 54.2292 106.459 54.8443 100.754C51.9543 101.061 49.0939 101.364 45.7699 101.439C45.2438 100.804 45.1814 100.397 45.3833 99.7985C51.5458 89.9379 57.444 80.2683 63.8239 69.809C56.0457 68.6476 50.83 71.9549 47.2295 77.1669C43.0571 83.2067 39.9778 90.0842 36.1652 96.5422C35.256 95.9192 34.6057 95.3519 33.9555 94.7847C30.3837 83.04 43.4707 66.5622 58.7405 65.4403C62.4092 65.1707 66.4803 65.3282 69.7746 66.7792C72.5828 68.0162 75.9712 71.1074 76.4763 73.9045C76.9897 76.7478 75.0646 81.2126 72.8054 83.1963C69.8765 85.7679 65.5607 86.5875 61.1545 88.1971C59.858 88.5075 59.2489 88.7821 58.6398 89.0568C59.3977 89.5746 60.1555 90.0923 60.9134 90.6101Z"
            fill="#FF961E" />
        <path
            d="M33.7258 94.9739C34.6057 95.3519 35.256 95.9192 36.3841 96.7549C38.2027 96.0303 39.9705 95.3301 40.8011 93.987C42.9249 90.5531 44.3391 86.614 46.586 83.2882C48.8749 79.9002 51.8188 77.0031 54.4759 73.891C55.0383 74.3538 55.6007 74.8165 56.163 75.2792C55.1287 77.3464 54.2038 79.485 53.0381 81.4664C50.3288 86.0717 47.3454 90.508 44.8372 95.2274C44.2172 96.394 44.9877 98.3803 45.119 99.9897C45.1814 100.397 45.2438 100.804 45.3812 101.512C43.2477 108.316 43.2581 107.953 35.9999 105.042C29.1918 102.311 25.791 97.5938 26.4033 90.1515C27.0806 81.9197 30.6143 75.288 38.2008 71.3052C35.9586 76.4201 33.14 81.4472 30.8702 86.7357C29.0206 91.0451 30.1145 93.6995 33.7258 94.9739Z"
            fill="white" />
        <path
            d="M71.5946 105.902C72.1231 103.692 72.5407 101.845 73.1314 99.2314C76.0946 103.216 75.9894 107.149 74.2778 110.282C71.9325 114.574 69.615 119.54 63.3402 120.656C66.323 115.385 68.9034 110.825 71.5946 105.902Z"
            fill="white" />
        <path
            d="M76.9051 83.2232C77.8791 78.402 78.7516 73.8884 79.5634 69.6894C84.0192 73.2181 83.945 80.8211 78.7457 84.3219C78.3998 84.5548 77.4648 83.817 76.9051 83.2232Z"
            fill="white" />
        <path
            d="M38.8303 71.2208C39.2478 70.3594 39.9555 69.4387 40.6633 68.5181C40.9555 68.8862 41.2477 69.2544 41.5398 69.6225C40.7334 70.1356 39.927 70.6486 38.8303 71.2208Z"
            fill="white" />
        <path
            d="M60.9613 90.2346C60.1555 90.0923 59.3977 89.5746 58.6398 89.0568C59.2489 88.7821 59.858 88.5075 60.7913 88.2911C61.0801 88.8526 61.0446 89.3558 60.9613 90.2346Z"
            fill="#FFF9F2" />
        <path
            d="M45.3833 99.7985C44.9877 98.3802 44.2172 96.394 44.8372 95.2274C47.3454 90.508 50.3288 86.0717 53.0381 81.4664C54.2038 79.485 55.1287 77.3464 56.163 75.2792C55.6007 74.8165 55.0383 74.3538 54.4759 73.891C51.8188 77.0031 48.8749 79.9002 46.586 83.2882C44.3391 86.614 42.9249 90.5531 40.8011 93.987C39.9705 95.3301 38.2027 96.0303 36.6429 96.8106C39.9778 90.0841 43.0571 83.2067 47.2295 77.1669C50.83 71.9549 56.0457 68.6476 63.8239 69.809C57.444 80.2683 51.5458 89.9379 45.3833 99.7985Z"
            fill="#FFFFFE" />
    </g>
    <defs>
        <clipPath id="clip0_3_14">
            <rect width="188" height="198" fill="white" />
        </clipPath>
    </defs>
</svg>