<svg width="305" height="22" viewBox="0 0 305 22" fill="none" xmlns="http://www.w3.org/2000/svg">
<path d="M1.5 3.5L0.5 0.5V21.5H304V1.5C303.833 2 303.2 3 302 3C301.2 2.6 301.667 4.16667 302 5V6H301.5H300.5C300.167 6.16667 299.2 6.5 298 6.5H297.5L297 7V7.5C296.5 7.5 295.5 7.4 295.5 7C295.5 6.6 294.5 6.5 294 6.5L293.5 8.5H293L292.5 9H291.5H291H289H287.5L286.5 10H285H284C283.167 9.66667 281.4 8.8 281 8C280.6 7.2 280.5 7.33333 280.5 7.5H278C276.8 7.5 277.167 7.16667 277.5 7L277 6.5H276.5H275L274 7H273.5H272.5L271.5 7.5H270.5L269.5 6.5H267.5L266.5 8L265 7.5H262C261.6 7.5 261.167 7.83333 261 8C260.833 8.33333 260.1 9 258.5 9H257C256.2 9 256.667 9.66667 257 10V10.5L256 11.5V12H255.5C255.167 12 254.3 11.9 253.5 11.5C252.7 11.1 252.167 11 252 11L251.5 10.5H250.5L248.5 11V12.5L248 13C247.833 13 247.3 13.1 246.5 13.5C245.7 13.9 245.833 14.3333 246 14.5L245 15H243.5C243.167 14.8333 242.3 14.5 241.5 14.5C240.7 14.5 240.167 15.1667 240 15.5L238 14.5L235.5 14L233 14.5L231.5 16C230.333 16.3333 227.8 16.6 227 15C226.5 14.5 224 14.5 223.5 14C223 13.5 222 14 221 13.5L220 13L217 13.5L216.5 13H213.5H212L211.5 13.5L209 14L208.5 15.5H207C206.667 15.3333 205.9 14.9 205.5 14.5C205.1 14.1 204.333 14.3333 204 14.5L202 16C201.667 15.8333 200.8 15.5 200 15.5C199.2 15.5 199 15.8333 199 16H198L195.5 15.5H194.5C193.833 15.1667 192.4 14.3 192 13.5C191.6 12.7 191.167 12.8333 191 13L189.5 14.5H187.5H185.5C185 15 183.7 15.8 182.5 15C181.3 14.2 182 15 182.5 15.5L180.5 15L178.5 15.5H177.5L175.5 17.5H175H172.5V18.5H168.5H167L164 17.5C163.5 17.5 162.3 17.2 161.5 16C160.7 14.8 161.167 14.8333 161.5 15L160 13.5L158 14.5L156 17.5C155.5 16.8333 154.3 15.3 153.5 14.5C152.7 13.7 152.167 14.8333 152 15.5H149.5L148.5 14.5V13L144.5 13.5L142.5 15.5L140.5 17.5H138H135.5L134.5 18.5H132.5C131.333 18.1667 128.8 17.1 128 15.5C127.2 13.9 126 14.1667 125.5 14.5L123 16L121 14.5L119.5 13.5L115 14.5L113 13.5L110 15L109 15.5C107.333 15.6667 103.7 15.9 102.5 15.5C101.3 15.1 100.667 14.6667 100.5 14.5L98 15.5C97.3333 15.1667 95.7 14.2 94.5 13L92 13.5L90 13L88 12L84.5 13.5L81 14.5H78L77 15.5L73 16L72 15.5H69V13.5H66H62V13L61 13.5H59H56.5V12H52.5H50.5H48.5V10.5L47 9H44.5L42 8H40.5L39 9V8L34.5 6.5H31V8L26.5 6.5H24.5L23 8L21 9H20L18 10.5H17H14V9H11H10L7.5 6.5H4L3 5.5L2 5L1.5 3.5Z" fill="white"/>
<path d="M291 8V9M291 9H289H287.5L286.5 10H285H284C283.167 9.66667 281.4 8.8 281 8C280.6 7.2 280.5 7.33333 280.5 7.5C280.167 7.5 279.2 7.5 278 7.5C276.8 7.5 277.167 7.16667 277.5 7L277 6.5H276.5H275L274 7H273.5H272.5L271.5 7.5H270.5L269.5 6.5H267.5L266.5 8L265 7.5C264.167 7.5 262.4 7.5 262 7.5C261.6 7.5 261.167 7.83333 261 8C260.833 8.33333 260.1 9 258.5 9C256.5 9 258 9 257 9C256.2 9 256.667 9.66667 257 10V10.5L256 11.5V12H255.5C255.167 12 254.3 11.9 253.5 11.5C252.7 11.1 252.167 11 252 11L251.5 10.5H250.5L248.5 11V12.5L248 13C247.833 13 247.3 13.1 246.5 13.5C245.7 13.9 245.833 14.3333 246 14.5L245 15H243.5C243.167 14.8333 242.3 14.5 241.5 14.5C240.7 14.5 240.167 15.1667 240 15.5L238 14.5L235.5 14L233 14.5L231.5 16C230.333 16.3333 227.8 16.6 227 15C226.5 14.5 224 14.5 223.5 14C223 13.5 222 14 221 13.5C220.2 13.1 220 13 220 13L217 13.5L216.5 13C215.833 13 214.3 13 213.5 13C212.7 13 212.167 13 212 13L211.5 13.5L209 14L208.5 15.5H207C206.667 15.3333 205.9 14.9 205.5 14.5C205.1 14.1 204.333 14.3333 204 14.5L202 16C201.667 15.8333 200.8 15.5 200 15.5C199.2 15.5 199 15.8333 199 16H198L195.5 15.5H194.5C193.833 15.1667 192.4 14.3 192 13.5C191.6 12.7 191.167 12.8333 191 13L189.5 14.5H187.5H185.5C185 15 183.7 15.8 182.5 15C181.3 14.2 182 15 182.5 15.5L180.5 15L178.5 15.5H177.5L175.5 17.5H175H172.5V18.5C171.5 18.5 169.3 18.5 168.5 18.5C167.7 18.5 167.167 18.5 167 18.5L164 17.5C163.5 17.5 162.3 17.2 161.5 16C160.7 14.8 161.167 14.8333 161.5 15L160 13.5L158 14.5L156 17.5C155.5 16.8333 154.3 15.3 153.5 14.5C152.7 13.7 152.167 14.8333 152 15.5H149.5L148.5 14.5V13L144.5 13.5L142.5 15.5L140.5 17.5H138H135.5L134.5 18.5H132.5C131.333 18.1667 128.8 17.1 128 15.5C127.2 13.9 126 14.1667 125.5 14.5L123 16L121 14.5L119.5 13.5L115 14.5L113 13.5L110 15L109 15.5C107.333 15.6667 103.7 15.9 102.5 15.5C101.3 15.1 100.667 14.6667 100.5 14.5L98 15.5C97.3333 15.1667 95.7 14.2 94.5 13L92 13.5L90 13L88 12L84.5 13.5L81 14.5H78L77 15.5L73 16L72 15.5H69V13.5H66H62V13L61 13.5H59H56.5V12H52.5H50.5H48.5V10.5L47 9H44.5L42 8H40.5L39 9V8L34.5 6.5H31V8L26.5 6.5H24.5L23 8L21 9H20L18 10.5H17H14V9H11H10L7.5 6.5H4L3 5.5L2 5L1.5 3.5L0.5 0.5V21.5H304V1.5C303.833 2 303.2 3 302 3C301.2 2.6 301.667 4.16667 302 5V6H301.5H300.5C300.167 6.16667 299.2 6.5 298 6.5C296.8 6.5 297.167 6.5 297.5 6.5L297 7V7.5C296.5 7.5 295.5 7.4 295.5 7C295.5 6.6 294.5 6.5 294 6.5L293.5 8.5H293L292.5 9H291.5H291Z" stroke="white"/>
</svg>
