<svg width="1368" height="41" viewBox="0 0 1368 41" fill="none" xmlns="http://www.w3.org/2000/svg">
<path d="M10 31.5H5.5H1V40H1367V7H1365.5L1364.5 6L1363 4.5H1359.5C1358.5 5 1356.2 6 1355 6C1354 6 1352.5 6.5 1350 6.5C1348 6.5 1346.33 6.5 1348 6L1340 4.5L1337 6L1330.5 9L1324 7.5L1320 11.5L1315 13.5L1311 11.5H1305H1300H1296.5C1295 11.5 1291.7 11 1290.5 9L1283.5 7.5H1281.5H1275L1274 9H1269.5L1266.5 7.5H1264L1260 7L1256.5 6.5L1253 9H1246L1241.5 11.5H1235.5C1234.7 11.5 1233.5 12.5 1233 13L1231 14.5H1224C1223.2 14.5 1221.83 15 1221 15.5C1220.17 14.5 1217.8 13 1217 13H1214H1209.5L1206.5 16L1202.5 16.5L1201.5 19L1198.5 18L1197 19H1187.5C1186.3 19 1182.67 20.6667 1181 21.5H1179.5C1177.83 20.6667 1174.3 18.7 1173.5 17.5C1172.5 16 1170 16 1169 16C1168.2 16 1166.17 15 1165.5 15.5L1160 13L1158 14.5H1153.5L1150.5 16L1148.5 14C1147.5 14 1144.7 15.7 1143.5 14.5C1142.3 13.3 1142 14 1142 14.5L1139.5 16L1135.5 17.5H1133.5H1132.5L1128.5 19L1122 20.5L1119 21.5L1116.5 24H1109H1106C1106 24 1103.83 23.5 1103 24C1102.17 24.5 1100 29 1100 29H1096.5C1096 29.5 1094.8 30.5 1094 30.5C1093.2 30.5 1092.33 31.8333 1092 32.5L1085 30.5H1077.5L1074 34C1074 34 1070.83 33.6667 1069.5 33.25H1063.5C1062.3 33.25 1060.33 33.0833 1059.5 33L1056 34C1055.33 33.75 1053.1 32.7 1049.5 30.5H1046C1045.2 30.5 1045.67 29.5 1046 29H1037.5L1034.5 27.5H1028.5V29H1023H1018L1016 30.5L1013 33C1011.83 33.3333 1008.5 33.25 1008.5 33.25C1008.5 33.25 1006.5 31.8333 1006 31.5L1001.25 33.25L999 34C998.5 34 996.171 33.8 990.857 33L985.5 30.5H981.5L979 32.5L976.5 30.5H974.5L972 31.5L967 33L962.5 32.5C961.833 32.6667 957.5 33 957.5 33C957.5 33 954.5 34.3333 954.5 35L951.5 37H949.5L942.5 35L939 37C938.333 37.5 934.5 38.5 934.5 38.5C934.5 38.5 932 37 930 37C928 37 927.5 35 925.5 35C923.9 35 923.833 33.6667 924.5 33L918.5 31L914 32L910 33C908.833 32.8333 904 31 904 31H902C902.167 31.5 897 33 897 33L893 30C893 32 888.2 31 887 31C885.5 31 886.5 32.5 883 34.5C880.2 36.1 877.333 35.6667 878 35L874 34.5L869 35L868 37L862.5 37.5L859.5 36L854.5 37C853.167 36.3333 850.2 34.6 849 33C847.8 31.4 847.167 32 847 32.5L842.5 33L838.5 34.5L837.5 33L830 29H827.5L823 30L818.5 31L815.5 32.5L809.5 33C807.333 32.8333 802.7 32.4 801.5 32L796.5 32.5L791.5 33L787.5 30H783H779L776.5 29L771.5 27L767.5 29L764.5 30L759 29H757L750 32L744 31L738 32H736L734.5 33.5L732 31H729H726C724.5 31 723 31 722 30C721.2 29.2 719 29.6667 718 30L715.5 31L713.5 32L711 33C710.167 32.3333 708.3 30.8 707.5 30C706.5 29 703.5 30 702 29C700.8 28.2 701.5 28 702 28C701.667 27.5 700.9 26.2 700.5 25C700.1 23.8 698.333 23.8333 697.5 24C696.667 24.3333 694.9 25 694.5 25C694 25 693 25.5 691.5 25C690.3 24.6 690 24.1667 690 24C688.333 24.3333 685 24.8 685 24V22.5L682.5 19H677H672.5L668 15.5H662.5C661.5 14.8333 659 12.5 659 12.5C659 12.5 657.833 13.5 657.5 14.5C656.667 14.8333 654.8 15.5 654 15.5C653 15.5 653 18 651.5 16.5C650 15 647 12.5 647 12.5C647 12.5 645.5 12.5 645.5 13.5L641.5 15.5L637 14.5L634.5 15.5L631.5 18L628 19C627.167 19.8333 625.3 21.5 624.5 21.5C623.7 21.5 621.5 22.1667 620.5 22.5L619.5 20.5L613.5 19L607.5 21.5H604L600.5 18C599.7 17.2 596.833 16.6667 595.5 16.5L592 14.5C591 14.1667 591 13.5 589 13.5C587 13.5 586 16.5 585.5 14.5L580 15.5H576.5L573 12.5L568 10H559L555.5 9.5L548.5 7.5H544L541 6L535 10C533.667 10 530.8 9.9 530 9.5C529 9 523 7.5 521.5 6C520.3 4.8 518.667 6.5 518 7.5L513 8.5H512H507.5L501.5 12.5L498.5 11L493.5 12.5C492.833 13.3333 491.2 15.1 490 15.5C488.5 16 484.5 13.5 482.5 11C480.9 9 480.5 9.5 480.5 10L476.5 8.5L472 6H465L461.5 4L457.5 7.5L452.5 8L451.5 6L441.5 5C439.5 5.33333 434.9 6 432.5 6C430.1 6 429.5 7 429.5 7.5L426 9.5L425.5 8.5L424.5 7.5H420.5V8.5C419.667 8.16667 418 7 418 5L415 7.5H410L408 8.5C406.833 8.5 404.3 8.3 403.5 7.5C402.7 6.7 400.5 7.16667 399.5 7.5C398.5 7.5 396.2 7.2 395 6L393 4C392 3 393.5 3 393 3C392.6 3 390.5 2.66667 389.5 2.5C388.167 3 384.6 3.5 381 1.5L376.5 3C375.833 2.5 374.4 1.5 374 1.5C373.6 1.5 372.5 2.5 372 3C370.5 3 367.4 2.9 367 2.5C366.5 2 365 2.5 364.5 1.5C364.1 0.699999 362.333 1.83333 361.5 2.5L359 4L354 3C352.667 3.66667 349.9 4.8 349.5 4C349 3 347.5 3 347 2.5C346.6 2.1 344.833 2.66667 344 3L341.5 5L338 1.5C337.2 1.1 336 3 335.5 4H332L329 3L326 4L324 6H320.5V8.5L315 7.5L311.5 9L308.5 8.5L305.5 6H302.5L300.5 8.5H298.5L297.5 6L292.5 8.5L290.5 9L288.5 7.5H286C284.833 7.5 282.3 7.2 281.5 6L278 5L274.5 6H271C270.6 6 270.167 7 270 7.5L267.5 8.5C266 8.5 262.9 8.3 262.5 7.5C262.1 6.7 260.333 6.16667 259.5 6L257.5 7.5H255.5L252.5 8.5H247.5H244.5L242 10H240H237.5L235 12.5L232.5 14L230.5 14.5L228.5 12.5L224.5 14L223 12.5H220.737L219.711 14.34C218.711 13.6734 216.811 12.34 217.211 12.34C217.611 12.34 214.667 11.5 213 11H209C208 11 206 10 205.5 8.5C205.1 7.3 203 8 202 8.5L199 7.5L196 8.5L194 7.5L190 8.5L188.5 10H186.5L184.5 7.5H182L180 8.5H177H173.5H172C170.5 9 167.1 10 165.5 10C163.9 10 164.833 10.6667 165.5 11H160.5H157V12.5H154H150.5L147 14L143.5 15.5L141.5 16.5L140 15.5H136.5L131.5 14H128.5L124.5 14.5L121 17.5L116.5 18L114 20.5L110 19.5L108.5 18L102.5 21L97 23H95L93 19.5H88L85 16.5H80.5H76.5C76 15.8333 74.9 14.4 74.5 14C74.1 13.6 72.3333 13.8333 71.5 14L71 15.5L68.5 18C67.6667 17.6667 65.9 16.9 65.5 16.5C65 16 63 14.5 62 14C61.2 13.6 60 14.1667 59.5 14.5L57.5 17.5C56.1667 17.3333 53.5 16.9 53.5 16.5C53.5 16.1 51.5 15.6667 50.5 15.5L48.5 17.5L45.5 19.5L41 21H36.5L35 21.5V25.5L31.5 26.5L27.5 28.5L24 26.5L18.5 25.5L17 30H10V31.5Z" fill="white"/>
<path d="M993 34L990.857 33M990.857 33L985.5 30.5H981.5L979 32.5L976.5 30.5H974.5L972 31.5L967 33L962.5 32.5C961.833 32.6667 957.5 33 957.5 33C957.5 33 954.5 34.3333 954.5 35L951.5 37H949.5L942.5 35L939 37C938.333 37.5 934.5 38.5 934.5 38.5C934.5 38.5 932 37 930 37C928 37 927.5 35 925.5 35C923.9 35 923.833 33.6667 924.5 33L918.5 31L914 32L910 33C908.833 32.8333 904 31 904 31H902C902.167 31.5 897 33 897 33L893 30C893 32 888.2 31 887 31C885.5 31 886.5 32.5 883 34.5C880.2 36.1 877.333 35.6667 878 35L874 34.5L869 35L868 37L862.5 37.5L859.5 36L854.5 37C853.167 36.3333 850.2 34.6 849 33C847.8 31.4 847.167 32 847 32.5L842.5 33L838.5 34.5L837.5 33L830 29H827.5L823 30L818.5 31L815.5 32.5L809.5 33C807.333 32.8333 802.7 32.4 801.5 32L796.5 32.5L791.5 33L787.5 30H783H779L776.5 29L771.5 27L767.5 29L764.5 30L759 29H757L750 32L744 31L738 32H736L734.5 33.5L732 31C731.167 31 729.4 31 729 31C728.5 31 727.5 31 726 31C724.5 31 723 31 722 30C721.2 29.2 719 29.6667 718 30L715.5 31L713.5 32L711 33C710.167 32.3333 708.3 30.8 707.5 30C706.5 29 703.5 30 702 29C700.8 28.2 701.5 28 702 28C701.667 27.5 700.9 26.2 700.5 25C700.1 23.8 698.333 23.8333 697.5 24C696.667 24.3333 694.9 25 694.5 25C694 25 693 25.5 691.5 25C690.3 24.6 690 24.1667 690 24C688.333 24.3333 685 24.8 685 24C685 23.2 685 22.6667 685 22.5L682.5 19H677H672.5L668 15.5H662.5C661.5 14.8333 659 12.5 659 12.5C659 12.5 657.833 13.5 657.5 14.5C656.667 14.8333 654.8 15.5 654 15.5C653 15.5 653 18 651.5 16.5C650 15 647 12.5 647 12.5C647 12.5 645.5 12.5 645.5 13.5L641.5 15.5L637 14.5L634.5 15.5L631.5 18L628 19C627.167 19.8333 625.3 21.5 624.5 21.5C623.7 21.5 621.5 22.1667 620.5 22.5L619.5 20.5L613.5 19L607.5 21.5H604C603.167 20.6667 601.3 18.8 600.5 18C599.7 17.2 596.833 16.6667 595.5 16.5L592 14.5C591 14.1667 591 13.5 589 13.5C587 13.5 586 16.5 585.5 14.5L580 15.5H576.5L573 12.5L568 10H559L555.5 9.5L548.5 7.5H544L541 6L535 10C533.667 10 530.8 9.9 530 9.5C529 9 523 7.5 521.5 6C520.3 4.8 518.667 6.5 518 7.5L513 8.5H512H507.5L501.5 12.5L498.5 11L493.5 12.5C492.833 13.3333 491.2 15.1 490 15.5C488.5 16 484.5 13.5 482.5 11C480.9 9 480.5 9.5 480.5 10L476.5 8.5L472 6H465L461.5 4L457.5 7.5L452.5 8L451.5 6L441.5 5C439.5 5.33333 434.9 6 432.5 6C430.1 6 429.5 7 429.5 7.5L426 9.5L425.5 8.5L424.5 7.5H420.5V8.5C419.667 8.16667 418 7 418 5L415 7.5H410L408 8.5C406.833 8.5 404.3 8.3 403.5 7.5C402.7 6.7 400.5 7.16667 399.5 7.5C398.5 7.5 396.2 7.2 395 6C393.5 4.5 394 5 393 4C392 3 393.5 3 393 3C392.6 3 390.5 2.66667 389.5 2.5C388.167 3 384.6 3.5 381 1.5L376.5 3C375.833 2.5 374.4 1.5 374 1.5C373.6 1.5 372.5 2.5 372 3C370.5 3 367.4 2.9 367 2.5C366.5 2 365 2.5 364.5 1.5C364.1 0.699999 362.333 1.83333 361.5 2.5L359 4L354 3C352.667 3.66667 349.9 4.8 349.5 4C349 3 347.5 3 347 2.5C346.6 2.1 344.833 2.66667 344 3L341.5 5C341.167 4.66667 340 3.5 338 1.5C337.2 1.1 336 3 335.5 4H332L329 3L326 4L324 6H320.5V8.5L315 7.5L311.5 9L308.5 8.5L305.5 6H302.5L300.5 8.5H298.5L297.5 6L292.5 8.5L290.5 9L288.5 7.5H286C284.833 7.5 282.3 7.2 281.5 6L278 5L274.5 6C273.5 6 271.4 6 271 6C270.6 6 270.167 7 270 7.5L267.5 8.5C266 8.5 262.9 8.3 262.5 7.5C262.1 6.7 260.333 6.16667 259.5 6L257.5 7.5H255.5L252.5 8.5C251.167 8.5 248.3 8.5 247.5 8.5C246.7 8.5 245.167 8.5 244.5 8.5L242 10H240H237.5L235 12.5L232.5 14L230.5 14.5L228.5 12.5L224.5 14L223 12.5H220.737L219.711 14.34C218.711 13.6734 216.811 12.34 217.211 12.34C217.611 12.34 214.667 11.5 213 11C212 11 209.8 11 209 11C208 11 206 10 205.5 8.5C205.1 7.3 203 8 202 8.5L199 7.5L196 8.5L194 7.5L190 8.5L188.5 10H186.5L184.5 7.5H182L180 8.5H177H173.5H172C170.5 9 167.1 10 165.5 10C163.9 10 164.833 10.6667 165.5 11H160.5H157V12.5H154H150.5L147 14L143.5 15.5L141.5 16.5L140 15.5H136.5L131.5 14H128.5L124.5 14.5L121 17.5L116.5 18L114 20.5L110 19.5L108.5 18L102.5 21L97 23H95L93 19.5H88L85 16.5H80.5H76.5C76 15.8333 74.9 14.4 74.5 14C74.1 13.6 72.3333 13.8333 71.5 14L71 15.5L68.5 18C67.6667 17.6667 65.9 16.9 65.5 16.5C65 16 63 14.5 62 14C61.2 13.6 60 14.1667 59.5 14.5L57.5 17.5C56.1667 17.3333 53.5 16.9 53.5 16.5C53.5 16.1 51.5 15.6667 50.5 15.5L48.5 17.5L45.5 19.5L41 21H36.5L35 21.5V25.5L31.5 26.5L27.5 28.5L24 26.5L18.5 25.5L17 30H10V31.5H5.5H1V40H1367V7H1365.5L1364.5 6L1363 4.5H1359.5C1358.5 5 1356.2 6 1355 6M990.857 33C996.171 33.8 998.5 34 999 34L1001.25 33.25M1003.5 32.5L1001.25 33.25M1001.25 33.25L1006 31.5C1006.5 31.8333 1008.5 33.25 1008.5 33.25C1008.5 33.25 1011.83 33.3333 1013 33L1016 30.5L1018 29H1023H1028.5V27.5H1034.5L1037.5 29H1046C1045.67 29.5 1045.2 30.5 1046 30.5C1047 30.5 1048.5 30.5 1049.5 30.5C1053.1 32.7 1055.33 33.75 1056 34L1059.5 33C1060.33 33.0833 1062.3 33.25 1063.5 33.25C1064.7 33.25 1068 33.25 1069.5 33.25C1070.83 33.6667 1074 34 1074 34L1077.5 30.5H1085L1092 32.5C1092.33 31.8333 1093.2 30.5 1094 30.5C1094.8 30.5 1096 29.5 1096.5 29H1100C1100 29 1102.17 24.5 1103 24C1103.83 23.5 1106 24 1106 24C1106 24 1107.5 24 1109 24C1110.2 24 1114.5 24 1116.5 24L1119 21.5L1122 20.5L1128.5 19L1132.5 17.5H1133.5H1135.5L1139.5 16L1142 14.5C1142 14 1142.3 13.3 1143.5 14.5C1144.7 15.7 1147.5 14 1148.5 14L1150.5 16L1153.5 14.5H1158L1160 13L1165.5 15.5C1166.17 15 1168.2 16 1169 16C1170 16 1172.5 16 1173.5 17.5C1174.3 18.7 1177.83 20.6667 1179.5 21.5H1181C1182.67 20.6667 1186.3 19 1187.5 19C1188.7 19 1194.33 19 1197 19L1198.5 18L1201.5 19L1202.5 16.5L1206.5 16L1209.5 13H1214C1214.67 13 1216.2 13 1217 13C1217.8 13 1220.17 14.5 1221 15.5C1221.83 15 1223.2 14.5 1224 14.5C1226 14.5 1229.5 14.5 1231 14.5L1233 13C1233.5 12.5 1234.7 11.5 1235.5 11.5C1236.3 11.5 1239.83 11.5 1241.5 11.5L1246 9H1253L1256.5 6.5L1260 7L1264 7.5H1266.5L1269.5 9H1274L1275 7.5H1281.5H1283.5L1290.5 9C1291.7 11 1295 11.5 1296.5 11.5H1300H1305H1311L1315 13.5L1320 11.5L1324 7.5L1330.5 9L1337 6L1340 4.5L1348 6C1346.33 6.5 1348 6.5 1350 6.5C1352.5 6.5 1354 6 1355 6M1355 6C1356 6 1353.5 6 1355 6Z" stroke="white"/>
</svg>
