<svg width="1367" height="58" viewBox="0 0 1367 58" fill="none" xmlns="http://www.w3.org/2000/svg">
<path d="M1.00001 19.5L1 0.499987L1366 0.50005V21.5L1364 21L1363 19L1360 20L1357.5 21L1355.5 20.5C1354.5 20.5 1352.5 24.5 1352.5 24.5L1348 22.5L1346.5 20C1345 19.6666 1341.7 18.7 1340.5 17.5C1339.3 16.3 1338 15.6666 1337.5 15.5H1333.5C1332.5 15.5 1331.5 14 1330.5 14H1327.5L1325 15.5H1320.5H1318.5H1315C1314.5 15 1313.3 14 1312.5 14H1311L1307.5 17.5L1306 19L1303.5 20.5H1301H1297.5L1295 19H1290L1285 22.5L1281 23L1277.5 25L1276 26C1273.83 25.6666 1265 22 1265 22L1261.5 19H1255.5H1252C1252 19 1247.6 20.5 1248 20.5H1242L1237 19H1235.5C1233.83 20.1666 1232 22.5 1232 22.5L1227 23L1224.5 22.5C1223.5 23.3333 1220.9 25.2 1218.5 26C1215.5 27 1214.5 25 1214.5 25L1211.5 26.4999C1211.5 26.4999 1207.4 27 1205 25C1204.2 24.2 1202 24.6666 1201 25C1199.83 25.3333 1197.2 26 1196 26C1194.5 26 1193 26 1190 23.5C1189.5 22 1187 20.5 1187 20.5L1184.5 21L1181 20.5H1177H1172H1166.5H1165C1163.83 21.1666 1161.2 22.5 1160 22.5H1156.5C1155.83 21.8333 1154.3 20.5 1153.5 20.5H1147.5H1146.5L1139.5 22.5C1138.33 23.3333 1135.8 25 1135 25C1134.2 25 1132.67 25.6666 1132 26L1129.5 27.5C1128.67 28.1666 1126.8 29.5 1126 29.5C1125.2 29.5 1123 28.1666 1122 27.5L1118.5 29.5H1116.5H1110C1108.8 29.5 1109.5 31.1666 1110 32L1108 34.5L1104.5 35.5H1099L1095.5 39H1091.5C1090.7 39 1087.83 40.3333 1086.5 41L1082.5 42.5C1081.67 42.5 1078.7 41.8 1073.5 39C1071.5 36.2 1070 37.8333 1069.5 39V41L1064 44C1062.5 43.5 1056.5 39 1056.5 39H1052.5C1052.5 39 1051.2 38.7 1048 37.5C1047 36 1044 35.5 1043 35.5C1042 35.5 1039 33 1039 33C1039 33 1036.33 32.5 1035.5 33H1030L1026.5 34.5L1022 35.5L1021 34.5C1020.17 34.6666 1016 34.5 1016 34.5L1013.5 38.5L1010.5 37.5L1008 39C1007.33 39.6666 1005.8 41 1005 41C1004.2 41 1003 42 1002.5 42.5H1000.5L996 45.5L992.5 42.5L989 41H985.5H984L979 42.5C978.167 43 976.1 44 974.5 44H972L967 47.5C965.667 47.5 962 45.5 962 45.5L958.5 47.5C957.333 48.1666 953 49 953 49H950.5L945.5 49.5L941.5 51L940 50H937.5H933L931 49L929 47.5L927 49L923 49.5L920.5 50L916.5 51L914.5 50H911C909.5 49.6666 906.3 48.7 905.5 47.5C904.7 46.3 903.833 47 903.5 47.5H897.5L896 45.5L892.5 44L889 45.5L887 44H880.5V42.5L878 41L874 42.5L870.5 45.5V47.5L869 49L867 48.5L865 47.5H862L860 50.5L853 49.5L851 52L847.5 53.5C845.167 54 840.4 54.7 840 53.5C839.5 52 837 50 837 50C837 50 835.5 51 835.5 52L831 51L828 50L824 51.5L822 53C820.667 53.3333 818 53.9 818 53.5C818 53 817 52 815.5 51.5C814.3 51.1 813.667 51 813.5 51C812.833 51 811.4 51.1 811 51.5C810.5 52 809.5 51 809 51C808.5 51 807 49 807 49L805 47.5C805 47.5 803 48 803 48.5C803 49 801 49 801 49V50L800 51H799H796C795.6 51 795.5 50.3333 795.5 50C795.167 49.6666 794.4 49 794 49H792C791.6 49 791.5 50.3333 791.5 51C790.833 51.3333 789.4 52 789 52C788.5 52 787.5 51.5 786.5 51C785.7 50.6 784.833 50.8333 784.5 51C783.5 51.3333 781.4 52 781 52C780.5 52 779.5 51 777.5 49C777.1 48.2 777 48.6666 777 49L776 51H773L768 50L765 52L762.5 54L761 55C760 54.8333 757.9 54.4 757.5 54C757.1 53.6 756.333 53.5 756 53.5H754L752.5 55.5H750.5L748 56.5C747.333 56.5 745.6 56.3 744 55.5C743.669 55.3345 743.432 55.209 743.269 55.1154L740.5 56.5L739 57L737 56.5L735.5 55C735.1 54.6 733.667 54.8333 733 55V56.5L731 55.5H728L726.5 56.5H724C723.2 56.5 723 55.8333 723 55.5H722H719.5H717.5C717.167 55.3333 716 53.5 716 53.5L713.5 54L711 53.5L708 55L705 55.5V56.5L702.5 57L699 56.5L698 55.5H697L696 56.5H692V55.5H690.5L689 56.5H685.5C684.7 56.5 683.5 55.8333 683 55.5H680.5C680.333 55.1667 680.5 53.5 680.5 53.5L680 52H678L675 51H672.5H671L668 52L663.5 51L658.5 52.5H655.5L655 52L653.5 51.5L652 51V53H648.5L644 51L642 47L639 48.5L637 51H633.5H631L627.5 53L625.5 54.5L623 53H615L611.5 51L609.5 53L607 54.5L603.5 53L599 51H595.5H591.5H588H586C582.5 50 572.5 46 572.5 46L570 44L566.5 44.5L563.5 46H561.5C560.333 46 556 44.5 556 44.5C556 44.5 553.333 45 553 46H550.5L546 48H543H539.5L538.5 50L537 51H534.5L531 52.5L529 51H525.5L518.5 48L514 51H510L505 53H502.5L498 51L492 48H489.5H485V46H482H476.5L474 44.5H472.5L467 43H465H462.5H459H457H453H448L443.5 40.5H439.5L435.5 38H433L428.5 35.5L425 38H421H413L410.5 35.5L406.5 37L404 38H400.5L392 40.5L384.5 43H382.5C380.5 43 378 41 378 41L375.5 40.5H372V43H367.5L364 40.5H360H357.5L354.5 38H351L347 34.5H343.5H340H337.5V32L335 30.5L330.5 29.5H326H324H321.5C320.167 30 317.3 30.7 316.5 29.5C315.7 28.3 314.167 26.9999 313.5 26.4999L311 23.5H306.5L299 22L294.5 23.5H290.5H287L283 24C281.167 22.1666 276.7 20.7 275.5 19.5C274.3 18.3 273 19 272.5 19.5L268.5 22H262.5H258L254 26.4999H249.5H245H240H234H231H228H224L222 23.5H218H215.5L211 22H206.5H199L196.5 21H193L190 22L189 20L187 21.5L184.5 21L179 23.5H173.5H171.5H168L166 26L164.5 23.5H160L157.5 21H153L149 22L143.5 21L140.5 19.5H138.5L134.5 18L133 16L129.5 15.5L126 16H123H118.5L116.5 14.5L115 14L112.5 16L108.5 19.5L103.5 21L93.5 23.5H89.5L86 20.5L82.5 21.5L79.5 23.5H76.5L71 21V20L68 21L66.5 22L64.5 23.5H60H57.5L56 22L52.5 19.5L44 18L41.5 16L37 14L34.5 16L29 18L24 16H19.5L17.5 18L16 22H11.5H8.00001L3.00001 19.5H1.00001Z" fill="white"/>
<path d="M1 0.499987L1.00001 19.5H3.00001L8.00001 22H11.5H16L17.5 18L19.5 16H24L29 18L34.5 16L37 14L41.5 16L44 18L52.5 19.5L56 22L57.5 23.5H60H64.5L66.5 22L68 21L71 20V21L76.5 23.5H79.5L82.5 21.5L86 20.5L89.5 23.5H93.5L103.5 21L108.5 19.5L112.5 16L115 14L116.5 14.5L118.5 16H123H126L129.5 15.5L133 16L134.5 18L138.5 19.5H140.5L143.5 21L149 22L153 21H157.5L160 23.5H164.5L166 26L168 23.5H171.5H173.5H179L184.5 21L187 21.5L189 20L190 22L193 21H196.5L199 22H206.5H211L215.5 23.5H218H222L224 26.4999H228H231H234H240H245H249.5H254L258 22H262.5H268.5L272.5 19.5C273 19 274.3 18.3 275.5 19.5C276.7 20.7 281.167 22.1666 283 24L287 23.5H290.5H294.5L299 22L306.5 23.5H311L313.5 26.4999C314.167 26.9999 315.7 28.3 316.5 29.5C317.3 30.7 320.167 30 321.5 29.5H324H326H330.5L335 30.5L337.5 32V34.5H340H343.5H347L351 38H354.5L357.5 40.5H360H364L367.5 43H372V40.5H375.5L378 41C378 41 380.5 43 382.5 43H384.5L392 40.5L400.5 38H404L406.5 37L410.5 35.5L413 38H421H425L428.5 35.5L433 38H435.5L439.5 40.5H443.5L448 43H453H457H459H462.5H465H467L472.5 44.5H474L476.5 46H482H485V48H489.5H492L498 51L502.5 53H505L510 51H514L518.5 48L525.5 51H529L531 52.5L534.5 51H537L538.5 50L539.5 48H543H546L550.5 46H553C553.333 45 556 44.5 556 44.5C556 44.5 560.333 46 561.5 46H563.5L566.5 44.5L570 44L572.5 46C572.5 46 582.5 50 586 51H588H591.5H595.5H599L603.5 53L607 54.5L609.5 53L611.5 51L615 53H623L625.5 54.5L627.5 53L631 51H633.5H637L639 48.5L642 47L644 51L648.5 53H652V51L653.5 51.5L655 52L655.5 52.5H658.5L663.5 51L668 52L671 51H672.5H675L678 52H680L680.5 53.5C680.5 53.5 680.333 55.1667 680.5 55.5H683C683.5 55.8333 684.7 56.5 685.5 56.5C686.3 56.5 688.167 56.5 689 56.5L690.5 55.5H692V56.5H696L697 55.5H698L699 56.5L702.5 57L705 56.5V55.5L708 55L711 53.5L713.5 54L716 53.5C716 53.5 717.167 55.3333 717.5 55.5H719.5H722H723C723 55.8333 723.2 56.5 724 56.5C724.8 56.5 726 56.5 726.5 56.5L728 55.5H731L733 56.5V55C733.667 54.8333 735.1 54.6 735.5 55C735.9 55.4 736.667 56.1666 737 56.5L739 57L740.5 56.5L743.5 55C743 54.8333 742.4 54.7 744 55.5C745.6 56.3 747.333 56.5 748 56.5L750.5 55.5H752.5L754 53.5H756C756.333 53.5 757.1 53.6 757.5 54C757.9 54.4 760 54.8333 761 55L762.5 54L765 52L768 50L773 51H776L777 49C777 48.6666 777.1 48.2 777.5 49C779.5 51 780.5 52 781 52C781.4 52 783.5 51.3333 784.5 51C784.833 50.8333 785.7 50.6 786.5 51C787.5 51.5 788.5 52 789 52C789.4 52 790.833 51.3333 791.5 51C791.5 50.3333 791.6 49 792 49C792.5 49 793.5 49 794 49C794.4 49 795.167 49.6666 795.5 50C795.5 50.3333 795.6 51 796 51C796.4 51 798.167 51 799 51H800L801 50V49C801 49 803 49 803 48.5C803 48 805 47.5 805 47.5L807 49C807 49 808.5 51 809 51C809.5 51 810.5 52 811 51.5C811.4 51.1 812.833 51 813.5 51C813.667 51 814.3 51.1 815.5 51.5C817 52 818 53 818 53.5C818 53.9 820.667 53.3333 822 53L824 51.5L828 50L831 51L835.5 52C835.5 51 837 50 837 50C837 50 839.5 52 840 53.5C840.4 54.7 845.167 54 847.5 53.5L851 52L853 49.5L860 50.5L862 47.5H865L867 48.5L869 49L870.5 47.5V45.5L874 42.5L878 41L880.5 42.5V44H887L889 45.5L892.5 44L896 45.5L897.5 47.5H903.5C903.833 47 904.7 46.3 905.5 47.5C906.3 48.7 909.5 49.6666 911 50H914.5L916.5 51L920.5 50L923 49.5L927 49L929 47.5L931 49L933 50H937.5H940L941.5 51L945.5 49.5L950.5 49H953C953 49 957.333 48.1666 958.5 47.5C959.667 46.8333 962 45.5 962 45.5C962 45.5 965.667 47.5 967 47.5L972 44C972.167 44 972.9 44 974.5 44C976.1 44 978.167 43 979 42.5L984 41H985.5H989L992.5 42.5L996 45.5L1000.5 42.5H1002.5C1003 42 1004.2 41 1005 41C1005.8 41 1007.33 39.6666 1008 39L1010.5 37.5L1013.5 38.5L1016 34.5C1016 34.5 1020.17 34.6666 1021 34.5L1022 35.5L1026.5 34.5L1030 33H1035.5C1036.33 32.5 1039 33 1039 33C1039 33 1042 35.5 1043 35.5C1044 35.5 1047 36 1048 37.5C1051.2 38.7 1052.5 39 1052.5 39H1056.5C1056.5 39 1062.5 43.5 1064 44L1069.5 41V39C1070 37.8333 1071.5 36.2 1073.5 39C1078.7 41.8 1081.67 42.5 1082.5 42.5L1086.5 41C1087.83 40.3333 1090.7 39 1091.5 39C1092.3 39 1094.5 39 1095.5 39L1099 35.5H1104.5L1108 34.5L1110 32C1109.5 31.1666 1108.8 29.5 1110 29.5C1111.2 29.5 1114.83 29.5 1116.5 29.5H1118.5L1122 27.5C1123 28.1666 1125.2 29.5 1126 29.5C1126.8 29.5 1128.67 28.1666 1129.5 27.5L1132 26C1132.67 25.6666 1134.2 25 1135 25C1135.8 25 1138.33 23.3333 1139.5 22.5L1146.5 20.5C1146.5 20.5 1146.7 20.5 1147.5 20.5C1148.5 20.5 1152.5 20.5 1153.5 20.5C1154.3 20.5 1155.83 21.8333 1156.5 22.5C1157.17 22.5 1158.8 22.5 1160 22.5C1161.2 22.5 1163.83 21.1666 1165 20.5H1166.5H1172H1177H1181L1184.5 21L1187 20.5C1187 20.5 1189.5 22 1190 23.5C1193 26 1194.5 26 1196 26C1197.2 26 1199.83 25.3333 1201 25C1202 24.6666 1204.2 24.2 1205 25C1207.4 27 1211.5 26.4999 1211.5 26.4999L1214.5 25C1214.5 25 1215.5 27 1218.5 26C1220.9 25.2 1223.5 23.3333 1224.5 22.5L1227 23L1232 22.5C1232 22.5 1233.83 20.1666 1235.5 19H1237L1242 20.5C1244.17 20.5 1248.4 20.5 1248 20.5C1247.6 20.5 1252 19 1252 19H1255.5H1261.5L1265 22C1265 22 1273.83 25.6666 1276 26L1277.5 25L1281 23L1285 22.5L1290 19H1295L1297.5 20.5H1301H1303.5L1306 19L1307.5 17.5L1311 14C1311.17 14 1311.7 14 1312.5 14C1313.3 14 1314.5 15 1315 15.5H1318.5H1320.5H1325L1327.5 14C1328.17 14 1329.7 14 1330.5 14C1331.5 14 1332.5 15.5 1333.5 15.5C1334.3 15.5 1336.5 15.5 1337.5 15.5C1338 15.6666 1339.3 16.3 1340.5 17.5C1341.7 18.7 1345 19.6666 1346.5 20L1348 22.5L1352.5 24.5C1352.5 24.5 1354.5 20.5 1355.5 20.5L1357.5 21L1360 20L1363 19L1364 21L1366 21.5V0.50005L1 0.499987Z" stroke="white"/>
</svg>
