<svg width="1320" height="110" viewBox="0 0 1320 110" fill="none" xmlns="http://www.w3.org/2000/svg">
<path d="M8.69693 43.07H4.34846H0V110H1320V8.21584H1318.55L1317.58 6.79322L1316.13 4.65929H1312.75C1311.79 5.3706 1309.56 6.79322 1308.4 6.79322C1307.44 6.79322 1305.99 7.50453 1303.57 7.50453C1301.64 7.50453 1300.03 7.50453 1301.64 6.79322L1293.91 4.65929L1291.01 6.79322L1284.73 11.0611L1278.45 8.92714L1274.58 14.6176L1269.75 17.4628L1265.89 14.6176H1260.09H1255.26H1251.87C1250.42 14.6176 1247.24 13.9063 1246.08 11.0611L1239.31 8.92714H1237.38H1231.1L1230.13 11.0611H1225.78L1222.88 8.92714H1220.47L1216.6 8.21584L1213.22 7.50453L1209.84 11.0611H1203.07L1198.73 14.6176H1192.93C1192.16 14.6176 1191 16.0402 1190.51 16.7515L1188.58 18.8855H1181.82C1181.04 18.8855 1179.72 19.5968 1178.92 20.3081C1178.11 18.8855 1175.82 16.7515 1175.05 16.7515H1172.15H1167.8L1164.9 21.0194L1161.04 21.7307L1160.07 25.2872L1157.17 23.8646L1155.72 25.2872H1146.54C1145.39 25.2872 1141.88 27.6583 1140.26 28.8438H1138.81C1137.2 27.6583 1133.79 24.8605 1133.02 23.1533C1132.05 21.0194 1129.63 21.0194 1128.67 21.0194C1127.89 21.0194 1125.93 19.5968 1125.29 20.3081L1119.97 16.7515L1118.04 18.8855H1113.69L1110.79 21.0194L1108.86 18.1742C1107.89 18.1742 1105.19 20.5926 1104.03 18.8855C1102.87 17.1783 1102.58 18.1742 1102.58 18.8855L1100.16 21.0194L1096.3 23.1533H1094.36H1093.4L1089.53 25.2872L1083.25 27.4212L1080.35 28.8438L1077.94 32.4003H1070.69H1067.79C1067.79 32.4003 1065.69 31.689 1064.89 32.4003C1064.09 33.1116 1061.99 39.5134 1061.99 39.5134H1058.61C1058.13 40.2247 1056.97 41.6473 1056.19 41.6473C1055.42 41.6473 1054.58 43.5441 1054.26 44.4926L1047.5 41.6473H1040.25L1036.87 46.6265C1036.87 46.6265 1033.8 46.1523 1032.52 45.5595H1026.72C1025.56 45.5595 1023.66 45.3224 1022.86 45.2039L1019.47 46.6265C1018.83 46.2708 1016.67 44.7771 1013.19 41.6473H1009.81C1009.04 41.6473 1009.49 40.2247 1009.81 39.5134H1001.6L998.697 37.3795H992.899V39.5134H987.584H982.753L980.82 41.6473L977.921 45.2039C976.79 45.678 973.572 45.5595 973.572 45.5595C973.572 45.5595 971.64 43.5441 971.157 43.07L966.567 45.5595L964.392 46.6265C963.909 46.6265 961.659 46.342 956.524 45.2039L951.347 41.6473H947.482L945.066 44.4926L942.65 41.6473H940.717L938.302 43.07L933.47 45.2039L929.122 44.4926C928.477 44.7297 924.29 45.2039 924.29 45.2039C924.29 45.2039 921.391 47.1007 921.391 48.0491L918.492 50.8943H916.559L909.795 48.0491L906.413 50.8943C905.768 51.6057 902.064 53.0283 902.064 53.0283C902.064 53.0283 899.649 50.8943 897.716 50.8943C895.783 50.8943 895.3 48.0491 893.367 48.0491C891.821 48.0491 891.757 46.1523 892.401 45.2039L886.603 42.3586L882.255 43.7813L878.389 45.2039C877.262 44.9667 872.591 42.3586 872.591 42.3586H870.659C870.82 43.07 865.827 45.2039 865.827 45.2039L861.962 40.936C861.962 43.7813 857.324 42.3586 856.164 42.3586C854.715 42.3586 855.681 44.4926 852.299 47.3378C849.593 49.614 846.823 48.9976 847.467 48.0491L843.602 47.3378L838.77 48.0491L837.804 50.8943L832.489 51.6057L829.59 49.4717L824.758 50.8943C823.47 49.9459 820.603 47.4801 819.444 45.2039C818.284 42.9277 817.672 43.7813 817.511 44.4926L813.163 45.2039L809.297 47.3378L808.331 45.2039L801.083 39.5134H798.668L794.319 40.936L789.971 42.3586L787.072 44.4926L781.274 45.2039C779.18 44.9667 774.703 44.3503 773.543 43.7813L768.712 44.4926L763.88 45.2039L760.015 40.936H755.666H751.801L749.385 39.5134L744.553 36.6682L740.688 39.5134L737.789 40.936L732.474 39.5134H730.542L723.777 43.7813L717.979 42.3586L712.182 43.7813H710.249L708.799 45.9152L706.384 42.3586H703.485H700.586C699.136 42.3586 697.687 42.3586 696.72 40.936C695.947 39.7979 693.821 40.4619 692.855 40.936L690.439 42.3586L688.507 43.7813L686.091 45.2039C685.286 44.2554 683.482 42.0741 682.709 40.936C681.742 39.5134 678.843 40.936 677.394 39.5134C676.234 38.3753 676.911 38.0908 677.394 38.0908C677.072 37.3795 676.331 35.5301 675.944 33.8229C675.558 32.1158 673.85 32.1632 673.045 32.4003C672.24 32.8745 670.533 33.8229 670.146 33.8229C669.663 33.8229 668.697 34.5342 667.247 33.8229C666.088 33.2539 665.798 32.6375 665.798 32.4003C664.187 32.8745 660.966 33.5384 660.966 32.4003V30.2664L658.551 25.2872H653.236H648.887L644.539 20.3081H639.224C638.258 19.3596 635.842 16.0402 635.842 16.0402C635.842 16.0402 634.714 17.4628 634.392 18.8855C633.587 19.3596 631.783 20.3081 631.01 20.3081C630.044 20.3081 630.044 23.8646 628.594 21.7307C627.145 19.5968 624.246 16.0402 624.246 16.0402C624.246 16.0402 622.797 16.0402 622.797 17.4628L618.931 20.3081L614.583 18.8855L612.167 20.3081L609.268 23.8646L605.886 25.2872C605.081 26.4727 603.277 28.8438 602.504 28.8438C601.731 28.8438 599.605 29.7922 598.638 30.2664L597.672 27.4212L591.874 25.2872L586.076 28.8438H582.694L579.312 23.8646C578.539 22.7265 575.768 21.9678 574.48 21.7307L571.098 18.8855C570.132 18.4113 570.132 17.4628 568.199 17.4628C566.266 17.4628 565.3 21.7307 564.817 18.8855L559.502 20.3081H556.12L552.738 16.0402L547.906 12.4837H539.209L535.827 11.7724L529.063 8.92714H524.714L521.815 6.79322L516.018 12.4837C514.729 12.4837 511.959 12.3414 511.186 11.7724C510.22 11.0611 504.422 8.92714 502.972 6.79322C501.813 5.08608 500.235 7.50453 499.59 8.92714L494.758 10.3498H493.792H489.444L483.646 16.0402L480.747 13.9063L475.915 16.0402C475.271 17.2257 473.693 19.739 472.533 20.3081C471.083 21.0194 467.218 17.4628 465.285 13.9063C463.739 11.0611 463.353 11.7724 463.353 12.4837L459.488 10.3498L455.139 6.79322H448.375L444.993 3.94798L441.127 8.92714L436.296 9.63845L435.329 6.79322L425.666 5.3706C423.734 5.8448 419.288 6.79322 416.969 6.79322C414.65 6.79322 414.07 8.21584 414.07 8.92714L410.688 11.7724L410.205 10.3498L409.239 8.92714H405.373V10.3498C404.568 9.87556 402.958 8.21584 402.958 5.3706L400.059 8.92714H395.227L393.294 10.3498C392.167 10.3498 389.719 10.0652 388.946 8.92714C388.173 7.78905 386.047 8.45294 385.081 8.92714C384.114 8.92714 381.892 8.50036 380.732 6.79322L378.799 3.94798C377.833 2.52537 379.283 2.52537 378.799 2.52537C378.413 2.52537 376.384 2.05117 375.417 1.81406C374.129 2.52537 370.682 3.23668 367.204 0.391442L362.855 2.52537C362.211 1.81406 360.826 0.391442 360.439 0.391442C360.053 0.391442 358.99 1.81406 358.507 2.52537C357.057 2.52537 354.061 2.38311 353.675 1.81406C353.192 1.10275 351.742 1.81406 351.259 0.391442C350.873 -0.746653 349.165 0.865643 348.36 1.81406L345.944 3.94798L341.113 2.52537C339.825 3.47378 337.151 5.08608 336.764 3.94798C336.281 2.52537 334.832 2.52537 334.348 1.81406C333.962 1.24501 332.254 2.05117 331.449 2.52537L329.034 5.3706L325.652 0.391442C324.878 -0.177604 323.719 2.52537 323.236 3.94798H319.854L316.955 2.52537L314.056 3.94798L312.123 6.79322H308.741V10.3498L303.426 8.92714L300.044 11.0611L297.145 10.3498L294.246 6.79322H291.347L289.414 10.3498H287.482L286.515 6.79322L281.684 10.3498L279.751 11.0611L277.818 8.92714H275.403C274.275 8.92714 271.827 8.50036 271.054 6.79322L267.672 5.3706L264.29 6.79322H260.908C260.521 6.79322 260.103 8.21584 259.941 8.92714L257.526 10.3498C256.076 10.3498 253.081 10.0652 252.694 8.92714C252.307 7.78905 250.6 7.03033 249.795 6.79322L247.862 8.92714H245.93L243.031 10.3498H238.199H235.3L232.884 12.4837H230.952H228.536L226.12 16.0402L223.704 18.1742L221.772 18.8855L219.839 16.0402L215.974 18.1742L214.524 16.0402H212.337L211.346 18.6578C210.38 17.7095 208.544 15.8126 208.93 15.8126C209.317 15.8126 206.472 14.6176 204.861 13.9063H200.996C200.029 13.9063 198.097 12.4837 197.613 10.3498C197.227 8.64262 195.198 9.63845 194.231 10.3498L191.332 8.92714L188.433 10.3498L186.501 8.92714L182.635 10.3498L181.186 12.4837H179.253L177.321 8.92714H174.905L172.972 10.3498H170.073H166.691H165.242C163.792 11.0611 160.507 12.4837 158.96 12.4837C157.414 12.4837 158.316 13.4321 158.96 13.9063H154.129H150.747V16.0402H147.848H144.466L141.083 18.1742L137.701 20.3081L135.769 21.7307L134.319 20.3081H130.937L126.105 18.1742H123.206L119.341 18.8855L115.959 23.1533L111.611 23.8646L109.195 27.4212L105.329 25.9985L103.88 23.8646L98.082 28.1325L92.7672 30.9777H90.8345L88.9019 25.9985H84.0703L81.1713 21.7307H76.8228H72.9575C72.4744 20.7822 71.4114 18.7432 71.0249 18.1742C70.6384 17.6051 68.9311 17.937 68.1259 18.1742L67.6428 20.3081L65.2269 23.8646C64.4217 23.3905 62.7145 22.2997 62.328 21.7307C61.8448 21.0194 59.9122 18.8855 58.9458 18.1742C58.1728 17.6051 57.0132 18.4113 56.53 18.8855L54.5974 23.1533C53.309 22.9162 50.7321 22.2997 50.7321 21.7307C50.7321 21.1617 48.7994 20.5452 47.8331 20.3081L45.9004 23.1533L43.0015 25.9985L38.653 28.1325H34.3045L32.855 28.8438V34.5342L29.4729 35.9569L25.6076 38.8021L22.2255 35.9569L16.9107 34.5342L15.4612 40.936H8.69693V43.07Z" fill="white"/>
</svg>
