<svg width="1367" height="65" viewBox="0 0 1367 65" fill="none" xmlns="http://www.w3.org/2000/svg">
<path d="M1 64.5V6.5H3L8 9H11.5H16L17.5 5L19.5 3H24L29 5L34.5 3L37 1L41.5 3L44 5L52.5 6.5L56 9L57.5 10.5H60H64.5L66.5 9L68 8L71 7V8L76.5 10.5H79.5L82.5 8.5L86 7.5L89.5 10.5H93.5L103.5 8L108.5 6.5L112.5 3L115 1L116.5 1.5L118.5 3H123H126L129.5 2.5L133 3L134.5 5L138.5 6.5H140.5L143.5 8L149 9L153 8H157.5L160 10.5H164.5L166 13L168 10.5H171.5H173.5H179L184.5 8L187 8.5L189 7L190 9L193 8H196.5L199 9H206.5H211L215.5 10.5H218H222L224 13.5H228H231H234H240H245H249.5H254L258 9H262.5H268.5L272.5 6.5C273 6 274.3 5.3 275.5 6.5C276.7 7.7 281.167 9.16667 283 11L287 10.5H290.5H294.5L299 9L306.5 10.5H311L313.5 13.5C314.167 14 315.7 15.3 316.5 16.5C317.3 17.7 320.167 17 321.5 16.5H324H326H330.5L335 17.5L337.5 19V21.5H340H343.5H347L351 25H354.5L357.5 27.5H360H364L367.5 30H372V27.5H375.5L378 28C378 28 380.5 30 382.5 30H384.5L392 27.5L400.5 25H404L406.5 24L410.5 22.5L413 25H421H425L428.5 22.5L433 25H435.5L439.5 27.5H443.5L448 30H453H457H459H462.5H465H467L472.5 31.5H474L476.5 33H482H485V35H489.5H492L498 38L502.5 40H505L510 38H514L518.5 35L525.5 38H529L531 39.5L534.5 38H537L538.5 37L539.5 35H543H546L550.5 33H553C553.333 32 556 31.5 556 31.5C556 31.5 560.333 33 561.5 33H563.5L566.5 31.5L570 31L572.5 33C572.5 33 582.5 37 586 38H588H591.5H595.5H599L603.5 40L607 41.5L609.5 40L611.5 38L615 40H623L625.5 41.5L627.5 40L631 38H633.5H637L639 35.5L642 34L644 38L648.5 40H652V38L653.5 38.5L655 39L655.5 39.5H658.5L663.5 38L668 39L671 38H672.5H675L678 39H680L680.5 40.5C680.5 40.5 680.333 42.1667 680.5 42.5H683C683.5 42.8333 684.7 43.5 685.5 43.5H689L690.5 42.5H692V43.5H696L697 42.5H698L699 43.5L702.5 44L705 43.5V42.5L708 42L711 40.5L713.5 41L716 40.5C716 40.5 717.167 42.3333 717.5 42.5H719.5H722H723C723 42.8333 723.2 43.5 724 43.5H726.5L728 42.5H731L733 43.5V42C733.667 41.8333 735.1 41.6 735.5 42L737 43.5L739 44L740.5 43.5L743.269 42.1154C742.644 41.7566 743.103 41.8678 743.5 42L743.269 42.1154C743.432 42.209 743.669 42.3345 744 42.5C745.6 43.3 747.333 43.5 748 43.5L750.5 42.5H752.5L754 40.5H756C756.333 40.5 757.1 40.6 757.5 41C757.9 41.4 760 41.8333 761 42L762.5 41L765 39L768 37L773 38H776L777 36C777 35.6667 777.1 35.2 777.5 36C779.5 38 780.5 39 781 39C781.4 39 783.5 38.3333 784.5 38C784.833 37.8333 785.7 37.6 786.5 38C787.5 38.5 788.5 39 789 39C789.4 39 790.833 38.3333 791.5 38C791.5 37.3333 791.6 36 792 36H794C794.4 36 795.167 36.6667 795.5 37C795.5 37.3333 795.6 38 796 38H799H800L801 37V36C801 36 803 36 803 35.5C803 35 805 34.5 805 34.5L807 36C807 36 808.5 38 809 38C809.5 38 810.5 39 811 38.5C811.4 38.1 812.833 38 813.5 38C813.667 38 814.3 38.1 815.5 38.5C817 39 818 40 818 40.5C818 40.9 820.667 40.3333 822 40L824 38.5L828 37L831 38L835.5 39C835.5 38 837 37 837 37C837 37 839.5 39 840 40.5C840.4 41.7 845.167 41 847.5 40.5L851 39L853 36.5L860 37.5L862 34.5H865L867 35.5L869 36L870.5 34.5V32.5L874 29.5L878 28L880.5 29.5V31H887L889 32.5L892.5 31L896 32.5L897.5 34.5H903.5C903.833 34 904.7 33.3 905.5 34.5C906.3 35.7 909.5 36.6667 911 37H914.5L916.5 38L920.5 37L923 36.5L927 36L929 34.5L931 36L933 37H937.5H940L941.5 38L945.5 36.5L950.5 36H953C953 36 957.333 35.1667 958.5 34.5L962 32.5C962 32.5 965.667 34.5 967 34.5L972 31H974.5C976.1 31 978.167 30 979 29.5L984 28H985.5H989L992.5 29.5L996 32.5L1000.5 29.5H1002.5C1003 29 1004.2 28 1005 28C1005.8 28 1007.33 26.6667 1008 26L1010.5 24.5L1013.5 25.5L1016 21.5C1016 21.5 1020.17 21.6667 1021 21.5L1022 22.5L1026.5 21.5L1030 20H1035.5C1036.33 19.5 1039 20 1039 20C1039 20 1042 22.5 1043 22.5C1044 22.5 1047 23 1048 24.5C1051.2 25.7 1052.5 26 1052.5 26H1056.5C1056.5 26 1062.5 30.5 1064 31L1069.5 28V26C1070 24.8333 1071.5 23.2 1073.5 26C1078.7 28.8 1081.67 29.5 1082.5 29.5L1086.5 28C1087.83 27.3333 1090.7 26 1091.5 26H1095.5L1099 22.5H1104.5L1108 21.5L1110 19C1109.5 18.1667 1108.8 16.5 1110 16.5H1116.5H1118.5L1122 14.5C1123 15.1667 1125.2 16.5 1126 16.5C1126.8 16.5 1128.67 15.1667 1129.5 14.5L1132 13C1132.67 12.6667 1134.2 12 1135 12C1135.8 12 1138.33 10.3333 1139.5 9.5L1146.5 7.5H1147.5H1153.5C1154.3 7.5 1155.83 8.83333 1156.5 9.5H1160C1161.2 9.5 1163.83 8.16667 1165 7.5H1166.5H1172H1177H1181L1184.5 8L1187 7.5C1187 7.5 1189.5 9 1190 10.5C1193 13 1194.5 13 1196 13C1197.2 13 1199.83 12.3333 1201 12C1202 11.6667 1204.2 11.2 1205 12C1207.4 14 1211.5 13.5 1211.5 13.5L1214.5 12C1214.5 12 1215.5 14 1218.5 13C1220.9 12.2 1223.5 10.3333 1224.5 9.5L1227 10L1232 9.5C1232 9.5 1233.83 7.16667 1235.5 6H1237L1242 7.5H1248C1247.6 7.5 1252 6 1252 6H1255.5H1261.5L1265 9C1265 9 1273.83 12.6667 1276 13L1277.5 12L1281 10L1285 9.5L1290 6H1295L1297.5 7.5H1301H1303.5L1306 6L1307.5 4.5L1311 1H1312.5C1313.3 1 1314.5 2 1315 2.5H1318.5H1320.5H1325L1327.5 1H1330.5C1331.5 1 1332.5 2.5 1333.5 2.5H1337.5C1338 2.66667 1339.3 3.3 1340.5 4.5C1341.7 5.7 1345 6.66667 1346.5 7L1348 9.5H1354C1354.8 9.5 1354.5 7.5 1355.5 7.5L1357.5 8L1360 7L1363 6L1364 8L1366 8.5C1366.17 8.66667 1366.5 9.2 1366.5 10V64.5H1Z" fill="white"/>
<path d="M1 64.5V6.5H3L8 9H11.5H16L17.5 5L19.5 3H24L29 5L34.5 3L37 1L41.5 3L44 5L52.5 6.5L56 9L57.5 10.5H60H64.5L66.5 9L68 8L71 7V8L76.5 10.5H79.5L82.5 8.5L86 7.5L89.5 10.5H93.5L103.5 8L108.5 6.5L112.5 3L115 1L116.5 1.5L118.5 3H123H126L129.5 2.5L133 3L134.5 5L138.5 6.5H140.5L143.5 8L149 9L153 8H157.5L160 10.5H164.5L166 13L168 10.5H171.5H173.5H179L184.5 8L187 8.5L189 7L190 9L193 8H196.5L199 9H206.5H211L215.5 10.5H218H222L224 13.5H228H231H234H240H245H249.5H254L258 9H262.5H268.5L272.5 6.5C273 6 274.3 5.3 275.5 6.5C276.7 7.7 281.167 9.16667 283 11L287 10.5H290.5H294.5L299 9L306.5 10.5H311L313.5 13.5C314.167 14 315.7 15.3 316.5 16.5C317.3 17.7 320.167 17 321.5 16.5H324H326H330.5L335 17.5L337.5 19V21.5H340H343.5H347L351 25H354.5L357.5 27.5H360H364L367.5 30H372V27.5H375.5L378 28C378 28 380.5 30 382.5 30H384.5L392 27.5L400.5 25H404L406.5 24L410.5 22.5L413 25H421H425L428.5 22.5L433 25H435.5L439.5 27.5H443.5L448 30H453H457H459H462.5H465H467L472.5 31.5H474L476.5 33H482H485V35H489.5H492L498 38L502.5 40H505L510 38H514L518.5 35L525.5 38H529L531 39.5L534.5 38H537L538.5 37L539.5 35H543H546L550.5 33H553C553.333 32 556 31.5 556 31.5C556 31.5 560.333 33 561.5 33H563.5L566.5 31.5L570 31L572.5 33C572.5 33 582.5 37 586 38H588H591.5H595.5H599L603.5 40L607 41.5L609.5 40L611.5 38L615 40H623L625.5 41.5L627.5 40L631 38H633.5H637L639 35.5L642 34L644 38L648.5 40H652V38L653.5 38.5L655 39L655.5 39.5H658.5L663.5 38L668 39L671 38H672.5H675L678 39H680L680.5 40.5C680.5 40.5 680.333 42.1667 680.5 42.5H683C683.5 42.8333 684.7 43.5 685.5 43.5C686.3 43.5 688.167 43.5 689 43.5L690.5 42.5H692V43.5H696L697 42.5H698L699 43.5L702.5 44L705 43.5V42.5L708 42L711 40.5L713.5 41L716 40.5C716 40.5 717.167 42.3333 717.5 42.5H719.5H722H723C723 42.8333 723.2 43.5 724 43.5C724.8 43.5 726 43.5 726.5 43.5L728 42.5H731L733 43.5V42C733.667 41.8333 735.1 41.6 735.5 42C735.9 42.4 736.667 43.1667 737 43.5L739 44L740.5 43.5L743.5 42C743 41.8333 742.4 41.7 744 42.5C745.6 43.3 747.333 43.5 748 43.5L750.5 42.5H752.5L754 40.5H756C756.333 40.5 757.1 40.6 757.5 41C757.9 41.4 760 41.8333 761 42L762.5 41L765 39L768 37L773 38H776L777 36C777 35.6667 777.1 35.2 777.5 36C779.5 38 780.5 39 781 39C781.4 39 783.5 38.3333 784.5 38C784.833 37.8333 785.7 37.6 786.5 38C787.5 38.5 788.5 39 789 39C789.4 39 790.833 38.3333 791.5 38C791.5 37.3333 791.6 36 792 36C792.5 36 793.5 36 794 36C794.4 36 795.167 36.6667 795.5 37C795.5 37.3333 795.6 38 796 38C796.4 38 798.167 38 799 38H800L801 37V36C801 36 803 36 803 35.5C803 35 805 34.5 805 34.5L807 36C807 36 808.5 38 809 38C809.5 38 810.5 39 811 38.5C811.4 38.1 812.833 38 813.5 38C813.667 38 814.3 38.1 815.5 38.5C817 39 818 40 818 40.5C818 40.9 820.667 40.3333 822 40L824 38.5L828 37L831 38L835.5 39C835.5 38 837 37 837 37C837 37 839.5 39 840 40.5C840.4 41.7 845.167 41 847.5 40.5L851 39L853 36.5L860 37.5L862 34.5H865L867 35.5L869 36L870.5 34.5V32.5L874 29.5L878 28L880.5 29.5V31H887L889 32.5L892.5 31L896 32.5L897.5 34.5H903.5C903.833 34 904.7 33.3 905.5 34.5C906.3 35.7 909.5 36.6667 911 37H914.5L916.5 38L920.5 37L923 36.5L927 36L929 34.5L931 36L933 37H937.5H940L941.5 38L945.5 36.5L950.5 36H953C953 36 957.333 35.1667 958.5 34.5C959.667 33.8333 962 32.5 962 32.5C962 32.5 965.667 34.5 967 34.5L972 31C972.167 31 972.9 31 974.5 31C976.1 31 978.167 30 979 29.5L984 28H985.5H989L992.5 29.5L996 32.5L1000.5 29.5H1002.5C1003 29 1004.2 28 1005 28C1005.8 28 1007.33 26.6667 1008 26L1010.5 24.5L1013.5 25.5L1016 21.5C1016 21.5 1020.17 21.6667 1021 21.5L1022 22.5L1026.5 21.5L1030 20H1035.5C1036.33 19.5 1039 20 1039 20C1039 20 1042 22.5 1043 22.5C1044 22.5 1047 23 1048 24.5C1051.2 25.7 1052.5 26 1052.5 26H1056.5C1056.5 26 1062.5 30.5 1064 31L1069.5 28V26C1070 24.8333 1071.5 23.2 1073.5 26C1078.7 28.8 1081.67 29.5 1082.5 29.5L1086.5 28C1087.83 27.3333 1090.7 26 1091.5 26C1092.3 26 1094.5 26 1095.5 26L1099 22.5H1104.5L1108 21.5L1110 19C1109.5 18.1667 1108.8 16.5 1110 16.5C1111.2 16.5 1114.83 16.5 1116.5 16.5H1118.5L1122 14.5C1123 15.1667 1125.2 16.5 1126 16.5C1126.8 16.5 1128.67 15.1667 1129.5 14.5L1132 13C1132.67 12.6667 1134.2 12 1135 12C1135.8 12 1138.33 10.3333 1139.5 9.5L1146.5 7.5C1146.5 7.5 1146.7 7.5 1147.5 7.5C1148.5 7.5 1152.5 7.5 1153.5 7.5C1154.3 7.5 1155.83 8.83333 1156.5 9.5C1157.17 9.5 1158.8 9.5 1160 9.5C1161.2 9.5 1163.83 8.16667 1165 7.5H1166.5H1172H1177H1181L1184.5 8L1187 7.5C1187 7.5 1189.5 9 1190 10.5C1193 13 1194.5 13 1196 13C1197.2 13 1199.83 12.3333 1201 12C1202 11.6667 1204.2 11.2 1205 12C1207.4 14 1211.5 13.5 1211.5 13.5L1214.5 12C1214.5 12 1215.5 14 1218.5 13C1220.9 12.2 1223.5 10.3333 1224.5 9.5L1227 10L1232 9.5C1232 9.5 1233.83 7.16667 1235.5 6H1237L1242 7.5C1244.17 7.5 1248.4 7.5 1248 7.5C1247.6 7.5 1252 6 1252 6H1255.5H1261.5L1265 9C1265 9 1273.83 12.6667 1276 13L1277.5 12L1281 10L1285 9.5L1290 6H1295L1297.5 7.5H1301H1303.5L1306 6L1307.5 4.5L1311 1C1311.17 1 1311.7 1 1312.5 1C1313.3 1 1314.5 2 1315 2.5H1318.5H1320.5H1325L1327.5 1C1328.17 1 1329.7 1 1330.5 1C1331.5 1 1332.5 2.5 1333.5 2.5C1334.3 2.5 1336.5 2.5 1337.5 2.5C1338 2.66667 1339.3 3.3 1340.5 4.5C1341.7 5.7 1345 6.66667 1346.5 7L1348 9.5C1348.83 9.5 1353.2 9.5 1354 9.5C1354.8 9.5 1354.5 7.5 1355.5 7.5L1357.5 8L1360 7L1363 6L1364 8L1366 8.5C1366.17 8.66667 1366.5 9.2 1366.5 10C1366.5 10.8 1366.5 46.6667 1366.5 64.5H1Z" stroke="white"/>
</svg>
